<svg width="120" height="120" xmlns="http://www.w3.org/2000/svg" xmlns:xlink="http://www.w3.org/1999/xlink"><defs><radialGradient cx="50%" cy="46.244%" fx="50%" fy="46.244%" r="52.416%" id="c"><stop stop-color="#304D82" offset="0%"/><stop stop-color="#0C1321" offset="100%"/></radialGradient><radialGradient cx="0%" cy="0%" fx="0%" fy="0%" r="386.9%" id="i"><stop stop-color="#FFF" offset="0%"/><stop stop-color="#BF67F0" offset="100%"/></radialGradient><radialGradient cx="50%" cy="97.316%" fx="50%" fy="97.316%" r="100%" id="j"><stop stop-color="#7850D1" offset="0%"/><stop stop-color="#131E32" offset="100%"/></radialGradient><radialGradient cx="50%" cy="56.686%" fx="50%" fy="56.686%" r="72.394%" id="k"><stop stop-color="#B071BF" offset="0%"/><stop stop-color="#8B60EC" stop-opacity="0" offset="100%"/></radialGradient><radialGradient cx="50%" cy="59.518%" fx="50%" fy="59.518%" r="54.846%" gradientTransform="scale(.87736 1) rotate(83.123 .535 .635)" id="r"><stop stop-color="#6BA0E2" offset="0%"/><stop stop-color="#131E32" offset="100%"/></radialGradient><radialGradient cx="10.635%" cy="9.467%" fx="10.635%" fy="9.467%" r="115.763%" gradientTransform="scale(1 .75785) rotate(67.691 .084 .11)" id="s"><stop stop-color="#E87BFF" offset="0%"/><stop stop-color="#C868FF" stop-opacity="0" offset="100%"/></radialGradient><radialGradient cx="0%" cy="0%" fx="0%" fy="0%" r="436.823%" gradientTransform="scale(.88571 1)" id="v"><stop stop-color="#FFF" offset="0%"/><stop stop-color="#BF67F0" offset="100%"/></radialGradient><radialGradient cx="50%" cy="42.273%" fx="50%" fy="42.273%" r="82.703%" gradientTransform="scale(1 .89878) rotate(62.604 .46 .447)" id="w"><stop stop-color="#6BA0E2" offset="0%"/><stop stop-color="#131E32" offset="100%"/></radialGradient><radialGradient cx="50%" cy="50%" fx="50%" fy="50%" r="68.907%" gradientTransform="matrix(.5901 .72561 -.80733 .53037 .609 -.128)" id="x"><stop stop-color="#BF61D5" offset="0%"/><stop stop-color="#8B60EC" stop-opacity="0" offset="100%"/></radialGradient><radialGradient cx="0%" cy="19.376%" fx="0%" fy="19.376%" r="129.825%" gradientTransform="matrix(.77027 .62102 -.6103 .7838 .118 .042)" id="y"><stop stop-color="#6BA0E2" offset="0%"/><stop stop-color="#131E32" offset="100%"/></radialGradient><radialGradient cx="100%" cy="26.754%" fx="100%" fy="26.754%" r="138.677%" gradientTransform="scale(-.98367 -1) rotate(-25.148 -1.208 4.52)" id="z"><stop stop-color="#6BA0E2" offset="0%"/><stop stop-color="#131E32" offset="100%"/></radialGradient><radialGradient cx="9.051%" cy="72.883%" fx="9.051%" fy="72.883%" r="121.398%" gradientTransform="scale(.98367 1) rotate(-29.028 .091 .726)" id="A"><stop stop-color="#6BA0E2" offset="0%"/><stop stop-color="#131E32" offset="100%"/></radialGradient><radialGradient cx="50%" cy="0%" fx="50%" fy="0%" r="121.805%" gradientTransform="matrix(0 1 -.98367 0 .5 -.5)" id="B"><stop stop-color="#6BA0E2" offset="0%"/><stop stop-color="#131E32" offset="100%"/></radialGradient><radialGradient cx="13.357%" cy="24.412%" fx="13.357%" fy="24.412%" r="76.792%" gradientTransform="scale(.98274 1) rotate(38.661 .135 .247)" id="C"><stop stop-color="#B071BF" offset="0%"/><stop stop-color="#8B60EC" stop-opacity="0" offset="100%"/></radialGradient><radialGradient cx="26.434%" cy="-11.111%" fx="26.434%" fy="-11.111%" r="101.298%" gradientTransform="matrix(.52938 .84284 -.82907 .53817 .032 -.274)" id="D"><stop stop-color="#B071BF" offset="0%"/><stop stop-color="#8B60EC" stop-opacity="0" offset="100%"/></radialGradient><radialGradient cx="15.467%" cy="71.213%" fx="15.467%" fy="71.213%" r="71.112%" gradientTransform="scale(.98367 1) rotate(-17.356 .156 .704)" id="E"><stop stop-color="#B071BF" offset="0%"/><stop stop-color="#8B60EC" stop-opacity="0" offset="100%"/></radialGradient><radialGradient cx="26.434%" cy="-11.111%" fx="26.434%" fy="-11.111%" r="101.298%" gradientTransform="matrix(.52938 .84284 -.82907 .53817 .032 -.274)" id="F"><stop stop-color="#B071BF" offset="0%"/><stop stop-color="#8B60EC" stop-opacity="0" offset="100%"/></radialGradient><radialGradient cx="100%" cy="84.459%" fx="100%" fy="84.459%" r="136.315%" gradientTransform="scale(-.98367 -1) rotate(29.565 3.192 -3.821)" id="G"><stop stop-color="#6BA0E2" offset="0%"/><stop stop-color="#131E32" offset="100%"/></radialGradient><radialGradient cx="77.48%" cy="66.248%" fx="77.48%" fy="66.248%" r="101.298%" gradientTransform="matrix(.52938 .84284 -.82907 .53817 .914 -.347)" id="H"><stop stop-color="#B071BF" offset="0%"/><stop stop-color="#8B60EC" stop-opacity="0" offset="100%"/></radialGradient><radialGradient cx="0%" cy="0%" fx="0%" fy="0%" r="386.9%" gradientTransform="scale(1 .56212)" id="K"><stop stop-color="#FFF" offset="0%"/><stop stop-color="#BF67F0" offset="100%"/></radialGradient><radialGradient cx="50%" cy="100%" fx="50%" fy="100%" r="108.2%" gradientTransform="matrix(0 -1 .98367 0 -.484 1.5)" id="L"><stop stop-color="#6BA0E2" offset="0%"/><stop stop-color="#131E32" offset="100%"/></radialGradient><radialGradient cx="50%" cy="77.799%" fx="50%" fy="77.799%" r="101.298%" gradientTransform="matrix(.52938 .84284 -.82907 .53817 .88 -.062)" id="M"><stop stop-color="#B071BF" offset="0%"/><stop stop-color="#8B60EC" stop-opacity="0" offset="100%"/></radialGradient><radialGradient cx="50%" cy="50%" fx="50%" fy="50%" r="50%" id="Y"><stop stop-color="#C42E6C" offset="0%"/><stop stop-color="#621736" stop-opacity="0" offset="100%"/></radialGradient><radialGradient cx="49.994%" cy="50.021%" fx="49.994%" fy="50.021%" r="40.098%" id="Z"><stop stop-color="#BC5AEC" offset="0%"/><stop stop-color="#632F7C" stop-opacity="0" offset="100%"/></radialGradient><linearGradient x1="-9.87%" y1="8.279%" x2="92.005%" y2="100%" id="d"><stop stop-color="#5B3175" offset="0%"/><stop stop-color="#200754" offset="100%"/></linearGradient><linearGradient x1="50%" y1="50%" x2="149.087%" y2="50%" id="f"><stop stop-color="#FFF" offset="0%"/><stop stop-color="#C42E6C" offset="100%"/></linearGradient><linearGradient x1="0%" y1="32.193%" x2="80.947%" y2="41.182%" id="m"><stop stop-color="#6E61AA" offset="0%"/><stop stop-color="#253857" offset="100%"/></linearGradient><linearGradient x1="50%" y1="164.2%" x2="50%" y2="0%" id="n"><stop stop-color="#5B79A2" offset="0%"/><stop stop-color="#182439" offset="100%"/></linearGradient><linearGradient x1="0%" y1="27.797%" x2="80.947%" y2="39.006%" id="o"><stop stop-color="#6E61AA" offset="0%"/><stop stop-color="#253857" offset="100%"/></linearGradient><linearGradient x1="50%" y1="0%" x2="50%" y2="100%" id="p"><stop stop-color="#F8EDFD" offset="0%"/><stop stop-color="#EED6FB" stop-opacity="0" offset="100%"/></linearGradient><linearGradient x1="25.613%" y1="6.73%" x2="50%" y2="100%" id="q"><stop stop-color="#C47EDD" offset="0%"/><stop stop-color="#7850D1" offset="100%"/></linearGradient><linearGradient x1="38.845%" y1="100%" x2="61.155%" y2="0%" id="X"><stop stop-color="#BF99F7" offset="0%"/><stop stop-color="#8B60ED" stop-opacity=".464" offset="100%"/></linearGradient><linearGradient x1="100%" y1="50%" x2="0%" y2="50%" id="aa"><stop stop-color="#A987F7" offset="0%"/><stop stop-color="#B372BD" offset="100%"/></linearGradient><linearGradient x1="27.533%" y1="75.518%" x2="50%" y2="0%" id="ab"><stop stop-color="#A987F7" offset="0%"/><stop stop-color="#B372BD" offset="100%"/></linearGradient><linearGradient x1="50%" y1="0%" x2="50%" y2="100%" id="ac"><stop stop-color="#F8EDFD" offset="0%"/><stop stop-color="#EED6FB" stop-opacity="0" offset="100%"/></linearGradient><linearGradient x1="50%" y1="0%" x2="50%" y2="100%" id="ad"><stop stop-color="#F8EDFD" offset="0%"/><stop stop-color="#EED6FB" stop-opacity="0" offset="100%"/></linearGradient><linearGradient x1="50%" y1="100%" x2="50%" y2="0%" id="ae"><stop stop-color="#F8EDFD" offset="0%"/><stop stop-color="#EED6FB" stop-opacity="0" offset="100%"/></linearGradient><linearGradient x1="50%" y1="164.2%" x2="50%" y2="0%" id="af"><stop stop-color="#5B79A2" offset="0%"/><stop stop-color="#182439" offset="100%"/></linearGradient><filter x="-33.8%" y="-168.8%" width="167.5%" height="437.5%" filterUnits="objectBoundingBox" id="e"><feOffset in="SourceAlpha" result="shadowOffsetOuter1"/><feGaussianBlur stdDeviation="3.5" in="shadowOffsetOuter1" result="shadowBlurOuter1"/><feColorMatrix values="0 0 0 0 0.951002038 0 0 0 0 0.370524746 0 0 0 0 0.61045536 0 0 0 1 0" in="shadowBlurOuter1" result="shadowMatrixOuter1"/><feMerge><feMergeNode in="shadowMatrixOuter1"/><feMergeNode in="SourceGraphic"/></feMerge></filter><filter x="-750%" y="-750%" width="1600%" height="1600%" filterUnits="objectBoundingBox" id="g"><feOffset in="SourceAlpha" result="shadowOffsetOuter1"/><feGaussianBlur stdDeviation="5" in="shadowOffsetOuter1" result="shadowBlurOuter1"/><feColorMatrix values="0 0 0 0 0.75205105 0 0 0 0 0.222881907 0 0 0 0 0.965324955 0 0 0 1 0" in="shadowBlurOuter1"/></filter><filter x="-33.8%" y="-168.8%" width="167.5%" height="437.5%" filterUnits="objectBoundingBox" id="l"><feOffset in="SourceAlpha" result="shadowOffsetOuter1"/><feGaussianBlur stdDeviation="3.5" in="shadowOffsetOuter1" result="shadowBlurOuter1"/><feColorMatrix values="0 0 0 0 0.951002038 0 0 0 0 0.370524746 0 0 0 0 0.61045536 0 0 0 1 0" in="shadowBlurOuter1" result="shadowMatrixOuter1"/><feMerge><feMergeNode in="shadowMatrixOuter1"/><feMergeNode in="SourceGraphic"/></feMerge></filter><filter x="-21.4%" y="-24.2%" width="142.9%" height="148.4%" filterUnits="objectBoundingBox" id="t"><feOffset in="SourceAlpha" result="shadowOffsetOuter1"/><feGaussianBlur stdDeviation="5" in="shadowOffsetOuter1" result="shadowBlurOuter1"/><feColorMatrix values="0 0 0 0 0.75205105 0 0 0 0 0.222881907 0 0 0 0 0.965324955 0 0 0 1 0" in="shadowBlurOuter1"/></filter><filter x="-57%" y="-32%" width="214%" height="164.1%" filterUnits="objectBoundingBox" id="I"><feOffset in="SourceAlpha" result="shadowOffsetOuter1"/><feGaussianBlur stdDeviation="2" in="shadowOffsetOuter1" result="shadowBlurOuter1"/><feColorMatrix values="0 0 0 0 0.75205105 0 0 0 0 0.222881907 0 0 0 0 0.965324955 0 0 0 1 0" in="shadowBlurOuter1"/></filter><filter x="-57%" y="-32%" width="214%" height="164.1%" filterUnits="objectBoundingBox" id="N"><feOffset in="SourceAlpha" result="shadowOffsetOuter1"/><feGaussianBlur stdDeviation="2" in="shadowOffsetOuter1" result="shadowBlurOuter1"/><feColorMatrix values="0 0 0 0 0.75205105 0 0 0 0 0.222881907 0 0 0 0 0.965324955 0 0 0 1 0" in="shadowBlurOuter1"/></filter><filter x="-57%" y="-32%" width="214%" height="164.1%" filterUnits="objectBoundingBox" id="P"><feOffset in="SourceAlpha" result="shadowOffsetOuter1"/><feGaussianBlur stdDeviation="2" in="shadowOffsetOuter1" result="shadowBlurOuter1"/><feColorMatrix values="0 0 0 0 0.75205105 0 0 0 0 0.222881907 0 0 0 0 0.965324955 0 0 0 1 0" in="shadowBlurOuter1"/></filter><filter x="-57%" y="-32%" width="214%" height="164.1%" filterUnits="objectBoundingBox" id="R"><feOffset in="SourceAlpha" result="shadowOffsetOuter1"/><feGaussianBlur stdDeviation="2" in="shadowOffsetOuter1" result="shadowBlurOuter1"/><feColorMatrix values="0 0 0 0 0.75205105 0 0 0 0 0.222881907 0 0 0 0 0.965324955 0 0 0 1 0" in="shadowBlurOuter1"/></filter><filter x="-57%" y="-32%" width="214%" height="164.1%" filterUnits="objectBoundingBox" id="T"><feOffset in="SourceAlpha" result="shadowOffsetOuter1"/><feGaussianBlur stdDeviation="2" in="shadowOffsetOuter1" result="shadowBlurOuter1"/><feColorMatrix values="0 0 0 0 0.75205105 0 0 0 0 0.222881907 0 0 0 0 0.965324955 0 0 0 1 0" in="shadowBlurOuter1"/></filter><filter x="-57%" y="-32%" width="214%" height="164.1%" filterUnits="objectBoundingBox" id="V"><feOffset in="SourceAlpha" result="shadowOffsetOuter1"/><feGaussianBlur stdDeviation="2" in="shadowOffsetOuter1" result="shadowBlurOuter1"/><feColorMatrix values="0 0 0 0 0.75205105 0 0 0 0 0.222881907 0 0 0 0 0.965324955 0 0 0 1 0" in="shadowBlurOuter1"/></filter><path id="h" d="M10.984 3.952h2v2h-2z"/><path d="M48.38 9.3l3.171 1.801-1.769 3.013 30.204 51.46h2.688v3h-.928l.544.925-3.17 1.801-1.6-2.727H17.817l-1.6 2.727-3.17-1.802.541-.925h-.914v-3h2.676l30.204-51.458-1.769-3.013 3.172-1.801.71 1.211.713-1.212zm27.377 56.273l-28.09-47.856-28.089 47.856h56.18z" id="u"/><path d="M18.523 2.052l-.04.004c-2.915.314-5.643 1.939-7.213 4.626-2.617 4.477-1.063 10.215 3.49 12.79a9.619 9.619 0 003.747 1.197 9.63 9.63 0 01-5.748-1.198c-4.552-2.574-6.106-8.312-3.489-12.79 1.934-3.308 5.622-5.006 9.253-4.63z" id="J"/><path d="M14.735 3.62l-.04.004c-2.915.314-5.643 1.94-7.213 4.626-2.617 4.478-1.063 10.216 3.49 12.79a9.619 9.619 0 003.747 1.198c-1.93.2-3.94-.176-5.748-1.198-4.552-2.574-6.106-8.312-3.489-12.79 1.933-3.308 5.622-5.007 9.253-4.63z" id="O"/><path d="M30.823 69.62l-.041.004c-2.914.314-5.642 1.94-7.213 4.626-2.616 4.478-1.063 10.216 3.49 12.79a9.619 9.619 0 003.748 1.198c-1.93.2-3.94-.176-5.748-1.198-4.553-2.574-6.106-8.312-3.49-12.79 1.934-3.308 5.623-5.007 9.254-4.63z" id="Q"/><path d="M99.823 69.62l-.041.004c-2.914.314-5.642 1.94-7.213 4.626-2.616 4.478-1.063 10.216 3.49 12.79a9.619 9.619 0 003.748 1.198c-1.93.2-3.94-.176-5.748-1.198-4.553-2.574-6.106-8.312-3.49-12.79 1.934-3.308 5.623-5.007 9.254-4.63z" id="S"/><path d="M99.823 30.62l-.041.004c-2.914.314-5.642 1.94-7.213 4.626-2.616 4.478-1.063 10.216 3.49 12.79a9.619 9.619 0 003.748 1.198c-1.93.2-3.94-.176-5.748-1.198-4.553-2.574-6.106-8.312-3.49-12.79 1.934-3.308 5.623-5.007 9.254-4.63z" id="U"/><path d="M64.823 88.62l-.041.004c-2.914.314-5.642 1.94-7.213 4.626-2.616 4.478-1.063 10.216 3.49 12.79a9.619 9.619 0 003.748 1.198c-1.93.2-3.94-.176-5.748-1.198-4.553-2.574-6.106-8.312-3.49-12.79 1.934-3.308 5.623-5.007 9.254-4.63z" id="W"/><circle id="a" cx="60" cy="60" r="60"/></defs><g fill="none" fill-rule="evenodd"><mask id="b" fill="#fff"><use xlink:href="#a"/></mask><use fill="#D8D8D8" xlink:href="#a"/><g mask="url(#b)"><circle fill="url(#c)" fill-rule="nonzero" cx="60" cy="60" r="60"/><circle fill="url(#d)" fill-rule="nonzero" opacity=".502" cx="60" cy="60" r="60"/><g transform="rotate(-30 220.16 -55.87)"><path d="M2 0h39.509a2 2 0 012 2v6a2 2 0 01-2 2H2a2 2 0 01-2-2V2a2 2 0 012-2z" fill="#16243A" fill-rule="nonzero"/><g filter="url(#e)" fill="url(#f)" transform="translate(1.984 .952)"><path d="M5 6v2H3V6h2zm11 0v2h-2V6h2zm11 0v2h-2V6h2zm13 0v2h-2V6h2zM5 3v2H3V3h2zm14 0v2h-2V3h2zm13 0v2h-2V3h2zM1 0a1 1 0 110 2 1 1 0 010-2zm9 0v2H8V0h2zm6 0v2h-2V0h2zm11 0v2h-2V0h2zm4 0a1 1 0 110 2 1 1 0 010-2z"/></g><path fill="#27425A" d="M4.984.952h2v2h-2zm19 0h2v2h-2zm-11 0h2v2h-2zm6 0h2v2h-2zm16 0h2v2h-2zm5 0h2v2h-2zm-38 3h2v2h-2zm6 0h2v2h-2z"/><g fill-rule="nonzero"><use fill="#000" filter="url(#g)" xlink:href="#h"/><use fill="url(#i)" xlink:href="#h"/></g><path fill="#27425A" d="M15.984 3.952h2v2h-2z"/><rect fill="#27425A" x="26.984" y="3.952" width="2" height="2" rx="1"/><path fill="#27425A" d="M34.984 3.952h2v2h-2z"/><g transform="translate(9.984 6.952)" fill="#27425A"><rect width="2" height="2" rx="1"/><path d="M22 0h2v2h-2z"/></g></g><g fill-rule="nonzero"><path d="M60 0c33.137 0 60 26.863 60 60s-26.863 60-60 60S0 93.137 0 60 26.863 0 60 0zm0 5C29.624 5 5 29.624 5 60s24.624 55 55 55 55-24.624 55-55S90.376 5 60 5z" fill="url(#j)"/><path d="M60 0c33.137 0 60 26.863 60 60s-26.863 60-60 60S0 93.137 0 60 26.863 0 60 0zm0 5C29.624 5 5 29.624 5 60s24.624 55 55 55 55-24.624 55-55S90.376 5 60 5z" fill="url(#k)" opacity=".829"/></g><g transform="rotate(30 -137.77 81.776)"><path d="M2 0h39.509a2 2 0 012 2v6a2 2 0 01-2 2H2a2 2 0 01-2-2V2a2 2 0 012-2z" fill="#16243A" fill-rule="nonzero"/><g filter="url(#l)" fill="url(#f)" transform="translate(1.984 .952)"><path d="M5 6v2H3V6h2zm11 0v2h-2V6h2zm11 0v2h-2V6h2zm13 0v2h-2V6h2zM5 3v2H3V3h2zm14 0v2h-2V3h2zm13 0v2h-2V3h2zM1 0a1 1 0 110 2 1 1 0 010-2zm9 0v2H8V0h2zm6 0v2h-2V0h2zm11 0v2h-2V0h2zm4 0a1 1 0 110 2 1 1 0 010-2z"/></g><path fill="#27425A" d="M4.984.952h2v2h-2zm19 0h2v2h-2zm-11 0h2v2h-2zm6 0h2v2h-2zm16 0h2v2h-2zm5 0h2v2h-2zm-38 3h2v2h-2zm6 0h2v2h-2zm3 0h2v2h-2zm5 0h2v2h-2z"/><rect fill="#27425A" x="26.984" y="3.952" width="2" height="2" rx="1"/><path fill="#27425A" d="M34.984 3.952h2v2h-2z"/><g transform="translate(9.984 6.952)" fill="#27425A"><rect width="2" height="2" rx="1"/><path d="M22 0h2v2h-2z"/></g></g><path d="M5.563 5.575c-1.975 3.986 2.321 7.082 9.054 8.086 9.743 1.452 13.736-9.502 27.782-2.789" stroke="url(#m)" stroke-width="2.16" transform="scale(1 -1) rotate(69.974 54.04 7.288)"/><g transform="scale(1 -1) rotate(61 59.155 11.926)" fill-rule="nonzero"><rect fill="#21324E" x="1.715" y="1.796" width="4.571" height="4.204" rx="1.37"/><rect fill="url(#n)" width="8" height="3.592" rx="1.37"/></g><path d="M5.556 5.576C3.58 9.562 10.072 16.64 16.37 14.24c4.99-1.9 11.974-10.08 26.02-3.367" stroke="url(#o)" stroke-width="2.16" transform="rotate(-110.026 54.863 -4.151)"/><g transform="rotate(-119 52.943 -.48)" fill-rule="nonzero"><rect fill="#21324E" x="1.715" y="1.796" width="4.571" height="4.204" rx="1.37"/><rect fill="url(#n)" width="8" height="3.592" rx="1.37"/></g><path stroke="url(#p)" stroke-width=".5" opacity=".551" d="M59.76 51.922v4.94h4.84v4.351h-8.758v4.753h6.66v5.745H59.76v5.47"/><circle stroke="url(#q)" stroke-width="2" cx="60" cy="60" r="59"/><path d="M48.356 0l3.919 2.225-2.186 3.723 36.675 62.484h4.349v4.451h-1.736l.876 1.492-3.919 2.225-2.183-3.717h-73.35L8.621 76.6l-3.918-2.226.874-1.491H3.805v-4.45l4.385-.001L44.865 5.948 42.68 2.226 46.6.001l.878 1.497.88-1.498zM81.54 68.432L47.477 10.398 13.414 68.432H81.54z" fill="url(#r)" fill-rule="nonzero" transform="translate(12.326 10.427)"/><path fill="url(#s)" fill-rule="nonzero" opacity=".751" d="M56.44 31.419l-37.8 34.973L45.105 14.51l12.854 10.741z" transform="translate(12.326 10.427)"/><g fill-rule="nonzero" transform="translate(12.326 10.427)"><use fill="#000" filter="url(#t)" xlink:href="#u"/><use fill="url(#v)" xlink:href="#u"/></g><path d="M43.682 0l1.756 2.992L78.641 21.85h3.505l-.001 1.99 1.724.979-1.724 2.936v43.7l-4.072-.001-32.36 18.378-2.043 3.482-38.49-21.86H1.734v-1.957L0 68.512l1.734-2.955V27.736L.012 24.802l1.722-.978v-1.973l3.476-.001L38.471 2.96 40.199.017l1.727.98L43.682 0zm-1.757 6.137L6.259 26.393v40.534l35.94 20.412L77.62 67.221V26.409L41.925 6.137z" fill="url(#w)" fill-rule="nonzero" transform="translate(17.86 12.847)"/><path d="M43.682 0l1.756 2.992L78.641 21.85h3.505l-.001 1.99 1.724.979-1.724 2.936v43.7l-4.072-.001-32.36 18.378-2.043 3.482-38.49-21.86H1.734v-1.957L0 68.512l1.734-2.955V27.736L.012 24.802l1.722-.978v-1.973l3.476-.001L38.471 2.96 40.199.017l1.727.98L43.682 0zm-1.757 6.137L6.259 26.393v40.534l35.94 20.412L77.62 67.221V26.409L41.925 6.137z" fill="url(#x)" fill-rule="nonzero" transform="translate(17.86 12.847)"/><path stroke="#F4E7FC" stroke-width="1.5" opacity=".181" d="M55.007 21.918L24.118 39.183V81.07l4.654.985 27.024 15.873h9.798l1.03-1.513 25.408-14.36L95.48 74.6V40.206l-4.74-3.89-27.968-15.957z"/><g fill-rule="nonzero"><path d="M93.675 57.182c-2.617 4.477-8.45 6.006-13.002 3.432-4.552-2.574-6.106-8.312-3.489-12.79s8.45-6.006 13.002-3.432c4.58 2.6 6.133 8.312 3.49 12.79" fill="url(#y)" transform="translate(12.326 28.568)"/><path d="M1.27 57.182c-2.617-4.478-1.063-10.19 3.49-12.79 4.551-2.574 10.357-1.046 13.001 3.432 2.617 4.478 1.063 10.189-3.489 12.79-4.579 2.574-10.385 1.045-13.002-3.432" fill="url(#z)" transform="translate(12.326 28.568)"/><path d="M77.211 14.04c-2.616-4.478-1.063-10.19 3.49-12.79 4.55-2.575 10.356-1.046 13 3.432 2.617 4.477 1.064 10.189-3.489 12.79-4.552 2.573-10.385 1.045-13.002-3.433" fill="url(#A)" transform="translate(12.326 28.568)"/><path d="M47.473 83.432c-5.261 0-9.513-4.183-9.513-9.358 0-5.175 4.252-9.358 9.513-9.358 5.26 0 9.513 4.183 9.513 9.358 0 5.148-4.252 9.358-9.513 9.358" fill="url(#B)" transform="translate(12.326 28.568)"/><path d="M93.675 57.182c-2.617 4.477-8.45 6.006-13.002 3.432-4.552-2.574-6.106-8.312-3.489-12.79s8.45-6.006 13.002-3.432c4.58 2.6 6.133 8.312 3.49 12.79" fill="url(#C)" opacity=".829" transform="translate(12.326 28.568)"/><path d="M1.27 57.182c-2.617-4.478-1.063-10.19 3.49-12.79 4.551-2.574 10.357-1.046 13.001 3.432 2.617 4.478 1.063 10.189-3.489 12.79-4.579 2.574-10.385 1.045-13.002-3.432" fill="url(#D)" opacity=".829" transform="translate(12.326 28.568)"/><path d="M77.211 14.04c-2.616-4.478-1.063-10.19 3.49-12.79 4.55-2.575 10.356-1.046 13 3.432 2.617 4.477 1.064 10.189-3.489 12.79-4.552 2.573-10.385 1.045-13.002-3.433" fill="url(#E)" opacity=".829" transform="translate(12.326 28.568)"/><path d="M47.473 83.432c-5.261 0-9.513-4.183-9.513-9.358 0-5.175 4.252-9.358 9.513-9.358 5.26 0 9.513 4.183 9.513 9.358 0 5.148-4.252 9.358-9.513 9.358" fill="url(#F)" opacity=".829" transform="translate(12.326 28.568)"/></g><g fill-rule="nonzero"><path d="M17.761 14.04c-2.616 4.477-8.45 6.005-13.002 3.431C.207 14.897-1.347 9.16 1.27 4.681 3.887.205 9.72-1.324 14.272 1.25c4.552 2.6 6.106 8.312 3.49 12.79" fill="url(#G)" transform="translate(12.3 28.568)"/><path d="M17.761 14.04c-2.616 4.477-8.45 6.005-13.002 3.431C.207 14.897-1.347 9.16 1.27 4.681 3.887.205 9.72-1.324 14.272 1.25c4.552 2.6 6.106 8.312 3.49 12.79" fill="url(#H)" opacity=".829" transform="translate(12.3 28.568)"/><g opacity=".489" transform="rotate(-150 23.239 23.997)"><use fill="#000" filter="url(#I)" xlink:href="#J"/><use fill="url(#K)" xlink:href="#J"/></g></g><g fill-rule="nonzero"><path d="M9.513 18.716C4.253 18.716 0 14.533 0 9.358 0 4.183 4.252 0 9.513 0c5.26 0 9.513 4.183 9.513 9.358 0 5.175-4.252 9.358-9.513 9.358" fill="url(#L)" transform="translate(50.286 7)"/><path d="M9.513 18.716C4.253 18.716 0 14.533 0 9.358 0 4.183 4.252 0 9.513 0c5.26 0 9.513 4.183 9.513 9.358 0 5.175-4.252 9.358-9.513 9.358" fill="url(#M)" opacity=".829" transform="translate(50.286 7)"/><g opacity=".489" transform="rotate(-90 38.117 -8.714)"><use fill="#000" filter="url(#N)" xlink:href="#O"/><use fill="url(#K)" xlink:href="#O"/></g></g><g opacity=".489" fill-rule="nonzero" transform="rotate(150 25.56 78.929)"><use fill="#000" filter="url(#P)" xlink:href="#Q"/><use fill="url(#K)" xlink:href="#Q"/></g><g opacity=".489" fill-rule="nonzero" transform="rotate(30 94.56 78.929)"><use fill="#000" filter="url(#R)" xlink:href="#S"/><use fill="url(#K)" xlink:href="#S"/></g><g opacity=".489" fill-rule="nonzero" transform="rotate(-30 94.56 39.929)"><use fill="#000" filter="url(#T)" xlink:href="#U"/><use fill="url(#K)" xlink:href="#U"/></g><g opacity=".489" fill-rule="nonzero" transform="rotate(90 59.56 97.929)"><use fill="#000" filter="url(#V)" xlink:href="#W"/><use fill="url(#K)" xlink:href="#W"/></g><path stroke="url(#X)" stroke-width="2.001" d="M43.22 0L25.627 24.794l11.48 22.386-20.173 8.466" transform="rotate(176.026 38.395 55.027)"/><g transform="rotate(1.026 -1992.925 2509)" fill-rule="nonzero"><circle fill="url(#Y)" style="mix-blend-mode:lighten" cx="15.5" cy="15.5" r="8.267"/><circle fill="url(#Z)" opacity=".6" cx="15.5" cy="15.5" r="15.5"/><circle fill="url(#i)" cx="15.5" cy="15.5" r="2.627"/></g><circle cx="3" cy="3" r="3" transform="rotate(-3.974 883.104 -507.85)" fill="url(#aa)" fill-rule="nonzero"/><circle cx="2.602" cy="2.602" r="2.602" transform="rotate(3.026 -1521.04 999.56)" fill="url(#ab)" fill-rule="nonzero"/><path stroke="url(#ac)" stroke-width=".5" opacity=".551" d="M59.978 51.922h7.26v9.291h6.071V54.54h4.244"/><path stroke="url(#ad)" stroke-width=".5" opacity=".551" d="M59.76 51.922h-6.653v9.291h-3.116v-4.645h-7.023"/><path stroke="url(#ae)" stroke-width=".5" opacity=".551" d="M59.978 51.865V27.193"/><circle fill="url(#d)" fill-rule="nonzero" opacity=".334" style="mix-blend-mode:soft-light" cx="60" cy="60" r="55"/></g><path d="M107.27 32.57c9.92-9.38 18.438 34.229-1.195 44.111" stroke="#345283" stroke-width="2.16"/><g transform="scale(1 -1) rotate(-69 29.36 -90.055)" fill-rule="nonzero"><rect fill="#21324E" x="1.5" y="1.496" width="4" height="3.504" rx="1.174"/><rect fill="url(#af)" width="7" height="2.994" rx="1.174"/></g><g><path d="M13.313 33.567c-12.353-9.925-16.98 34.677.063 43.145" stroke="#345283" stroke-width="2.16"/><g transform="rotate(111 -2.46 21.431)" fill-rule="nonzero"><rect fill="#21324E" x="1.5" y="1.496" width="4" height="3.504" rx="1.174"/><rect fill="url(#af)" width="7" height="2.994" rx="1.174"/></g></g></g></svg>