<svg xmlns="http://www.w3.org/2000/svg" xmlns:xlink="http://www.w3.org/1999/xlink" width="120" height="120.001"><defs><radialGradient id="radial-gradient" cx=".669" cy="1.084" r=".599" gradientTransform="matrix(.99 .141 -.199 1.397 .118 -.253)" gradientUnits="objectBoundingBox"><stop offset="0" stop-color="#fc41df"/><stop offset="1" stop-color="#fd6dec" stop-opacity="0"/></radialGradient><radialGradient id="radial-gradient-2" cx=".058" cy=".152" r="2.012" gradientTransform="matrix(.433 .901 -.703 .338 .122 .178)" gradientUnits="objectBoundingBox"><stop offset="0" stop-color="#6ba0e2"/><stop offset=".305" stop-color="#54729a"/><stop offset=".526" stop-color="#2f4464"/><stop offset="1"/></radialGradient><radialGradient id="radial-gradient-3" cx=".154" cy=".175" r=".599" gradientTransform="matrix(.99 .141 -.199 1.397 .118 -.253)" gradientUnits="objectBoundingBox"><stop offset="0" stop-color="#fff"/><stop offset="1" stop-color="#fd6da4" stop-opacity="0"/></radialGradient><radialGradient id="radial-gradient-4" cx=".154" cy=".175" r=".599" xlink:href="#radial-gradient"/><radialGradient id="radial-gradient-5" cx="0" cy="0" r="1.283" gradientTransform="matrix(.7071 .7071 -.52184 .52184 0 0)" xlink:href="#linear-gradient-3"/><radialGradient id="radial-gradient-6" cx=".309" cy=".166" r=".686" gradientTransform="matrix(.787 .616 -.924 1.181 .219 -.221)" gradientUnits="objectBoundingBox"><stop offset="0" stop-color="#fc41df"/><stop offset="1" stop-color="#fd6d73" stop-opacity="0"/></radialGradient><radialGradient id="radial-gradient-7" cx=".298" cy=".231" r="3.742" gradientTransform="matrix(.288 .958 -.988 .297 .44 -.123)" gradientUnits="objectBoundingBox"><stop offset="0" stop-color="#fff"/><stop offset="1" stop-color="#c42e6c"/></radialGradient><radialGradient id="radial-gradient-8" cx=".5" cy=".5" r=".5" gradientTransform="matrix(1 0 0 .756 0 .122)" gradientUnits="objectBoundingBox"><stop offset="0" stop-opacity=".608"/><stop offset=".382" stop-opacity=".392"/><stop offset="1" stop-opacity="0"/></radialGradient><radialGradient id="radial-gradient-10" cx=".5" cy=".5" r=".5" gradientUnits="objectBoundingBox"><stop offset="0" stop-color="#c42e6c"/><stop offset="1" stop-color="#621736" stop-opacity="0"/></radialGradient><linearGradient id="linear-gradient" x1=".304" x2=".5" y2="1" gradientUnits="objectBoundingBox"><stop offset="0" stop-color="#b9437c"/><stop offset="1" stop-color="#1a2536"/></linearGradient><linearGradient id="linear-gradient-2" x1=".224" x2=".825" y1=".053" y2=".955" gradientUnits="objectBoundingBox"><stop offset="0" stop-color="#ff5f94"/><stop offset="1" stop-color="#ec454f"/></linearGradient><linearGradient id="linear-gradient-3" x1=".67" x2=".59" y1="1.239" y2="-.195" gradientUnits="objectBoundingBox"><stop offset="0" stop-color="#6ba0e2"/><stop offset="1" stop-color="#0a0f1a"/></linearGradient><linearGradient id="linear-gradient-4" x1="-.672" x2="1.849" y1=".7" y2=".428" gradientUnits="objectBoundingBox"><stop offset="0" stop-color="#04060a"/><stop offset="1" stop-color="#111b30"/></linearGradient><linearGradient id="linear-gradient-5" x1=".745" x2="-2.075" y1=".896" y2="-.816" gradientUnits="objectBoundingBox"><stop offset="0" stop-color="#dd1e5b"/><stop offset="1" stop-color="#efc7d8"/></linearGradient><linearGradient id="linear-gradient-6" x1=".809" x2="0" y2=".896" gradientUnits="objectBoundingBox"><stop offset="0" stop-color="#fb3b78"/><stop offset="1" stop-color="#efc7d8"/></linearGradient><style>.cls-20{fill-rule:evenodd}.cls-15{opacity:.211;fill:url(#radial-gradient-8)}.cls-19{fill:url(#linear-gradient-5)}.cls-20{fill:rgba(255,255,255,.2)}</style></defs><g id="frameworks-livewire-basics" transform="translate(-195 -239)"><g id="Color_Crown_Shadow" transform="translate(2651 629)"><circle id="Shadow" cx="58" cy="58" r="58" fill="url(#linear-gradient)" transform="translate(-2454 -388)"/><g id="Color_Crown" transform="translate(-2456 -390)"><path id="Ring" fill="url(#linear-gradient-2)" d="M780 826a59.72 59.72 0 01-33.547-10.247 60.176 60.176 0 01-21.739-26.4 59.921 59.921 0 015.532-56.9 60.176 60.176 0 0126.4-21.738 59.92 59.92 0 0156.9 5.532 60.174 60.174 0 0121.738 26.4 59.923 59.923 0 01-5.532 56.9 60.174 60.174 0 01-26.4 21.739A59.623 59.623 0 01780 826zm0-118a57.729 57.729 0 00-32.429 9.905 58.167 58.167 0 00-21.014 25.518 57.924 57.924 0 005.348 55 58.169 58.169 0 0025.518 21.014 57.923 57.923 0 0055-5.348 58.17 58.17 0 0021.014-25.518 57.924 57.924 0 00-5.348-55 58.171 58.171 0 00-25.518-21.013A57.638 57.638 0 00780 708z" transform="translate(-720 -706)"/></g></g><g id="Group_598" transform="translate(634 1179)"><path id="Body-Copy-2" fill="#fb70a9" fill-rule="evenodd" d="M93.687 70.607c-1.733 2.619-3.049 5.847-6.571 5.847-5.928 0-6.249-9.141-12.18-9.141s-5.611 9.14-11.536 9.14-6.249-9.141-12.18-9.141-5.611 9.141-11.539 9.141-6.249-9.141-12.18-9.141-5.611 9.141-11.539 9.141a5.537 5.537 0 01-4.276-2.141A50.628 50.628 0 015 49.03C5 21.951 25.918 0 51.722 0s46.721 21.951 46.721 49.03a50.826 50.826 0 01-4.756 21.577z" transform="translate(-431 -930)"/><g id="Legs" transform="translate(-411.134 -884.272)"><path id="Combined-Shape" fill="url(#linear-gradient-3)" d="M13.2 7.968v19.205a6.427 6.427 0 01-6.6 6.24 6.427 6.427 0 01-6.6-6.24V3.989C1.232 1.851 2.639 0 5.175 0 9.3 0 10.747 4.905 13.2 7.968zm24.928 1v30.37a7.141 7.141 0 01-7.332 6.934 7.141 7.141 0 01-7.332-6.934V4.966C24.843 2.449 26.266 0 29.183 0c4.617 0 5.876 6.137 8.943 8.969zm23.462-.557v22.048a6.609 6.609 0 01-13.2 0V3.36C49.539 1.5 50.907 0 53.191 0c4.335 0 5.709 5.406 8.397 8.412z" transform="translate(0 11.612)"/><path id="Combined-Shape-2" fill="url(#radial-gradient)" d="M13.2 7.968v19.205a6.427 6.427 0 01-6.6 6.24 6.427 6.427 0 01-6.6-6.24V3.989C1.232 1.851 2.639 0 5.175 0 9.3 0 10.747 4.905 13.2 7.968zm24.928 1v30.37a7.141 7.141 0 01-7.332 6.934 7.141 7.141 0 01-7.332-6.934V4.966C24.843 2.449 26.266 0 29.183 0c4.617 0 5.876 6.137 8.943 8.969zm23.462-.557v22.048a6.609 6.609 0 01-13.2 0V3.36C49.539 1.5 50.907 0 53.191 0c4.335 0 5.709 5.406 8.397 8.412z" opacity=".217" transform="translate(0 11.612)"/><path id="Combined-Shape-3" fill="rgba(0,0,0,0.3)" d="M13.2 20.794a5.746 5.746 0 00-4.56-2.5c-4.758 0-5.632 6-8.637 8.7V1.131a6.6 6.6 0 0113.2 0zm24.928.463C36.877 19.6 35.418 18.3 33.2 18.3c-5.294 0-5.779 7.423-9.742 9.475V16.333a7.332 7.332 0 0114.664 0zm23.462-1.284a5.254 5.254 0 00-3.82-1.673c-5.128 0-5.744 6.966-9.38 9.267V4.346a6.6 6.6 0 1113.2 0z" opacity=".49" transform="translate(0 5.468)"/></g><path id="Body-Copy-4" fill="url(#radial-gradient-2)" fill-rule="evenodd" d="M93.687 70.607c-1.733 2.619-3.049 5.847-6.571 5.847-5.928 0-6.249-9.141-12.18-9.141s-5.611 9.14-11.536 9.14-6.249-9.141-12.18-9.141-5.611 9.141-11.539 9.141-6.249-9.141-12.18-9.141-5.611 9.141-11.539 9.141a5.537 5.537 0 01-4.276-2.141A50.628 50.628 0 015 49.03C5 21.951 25.918 0 51.722 0s46.721 21.951 46.721 49.03a50.826 50.826 0 01-4.756 21.577z" transform="translate(-431 -930)"/><path id="Body-Copy-4-2" fill="url(#radial-gradient-3)" fill-rule="evenodd" d="M93.687 70.607c-1.733 2.619-3.049 5.847-6.571 5.847-5.928 0-6.249-9.141-12.18-9.141s-5.611 9.14-11.536 9.14-6.249-9.141-12.18-9.141-5.611 9.141-11.539 9.141-6.249-9.141-12.18-9.141-5.611 9.141-11.539 9.141a5.537 5.537 0 01-4.276-2.141A50.628 50.628 0 015 49.03C5 21.951 25.918 0 51.722 0s46.721 21.951 46.721 49.03a50.826 50.826 0 01-4.756 21.577z" opacity=".729" transform="translate(-431 -930)"/><path id="Body-Copy-4-3" fill="url(#radial-gradient-4)" fill-rule="evenodd" d="M93.687 70.607c-1.733 2.619-3.049 5.847-6.571 5.847-5.928 0-6.249-9.141-12.18-9.141s-5.611 9.14-11.536 9.14-6.249-9.141-12.18-9.141-5.611 9.141-11.539 9.141-6.249-9.141-12.18-9.141-5.611 9.141-11.539 9.141a5.537 5.537 0 01-4.276-2.141A50.628 50.628 0 015 49.03C5 21.951 25.918 0 51.722 0s46.721 21.951 46.721 49.03a50.826 50.826 0 01-4.756 21.577z" opacity=".383" transform="translate(-431 -930)"/><path id="Combined-Shape-4" fill="url(#linear-gradient-4)" fill-rule="evenodd" d="M42.2 67.4c12.247-18.21 12.928-38.306 1.317-60.5 8.606 8.817 13.349 21.016 13.349 34.366a50.443 50.443 0 01-4.8 21.638c-2.515 3.682-3.179 5.69-6.83 5.69A5.177 5.177 0 0142.2 67.4z" opacity=".176" transform="translate(-389.423 -922.134)"/><g id="Eyes-Copy-2" transform="translate(-404.872 -917.258)"><g id="Group_597"><path id="Oval" fill="#fff" fill-rule="evenodd" d="M38.037 48.519c16.247 0 23.089-9.426 23.089-22.811S50.789 0 38.037 0 14.949 12.322 14.949 25.707s6.841 22.812 23.088 22.812z" transform="translate(-14.949)" style="isolation:isolate;mix-blend-mode:overlay" opacity=".308"/><ellipse id="Oval-2" cx="8.658" cy="9.557" fill="url(#radial-gradient-5)" rx="8.658" ry="9.557" transform="translate(8.223 7.351)"/><ellipse id="Oval-3" cx="8.658" cy="9.557" fill="url(#radial-gradient-6)" opacity=".383" rx="8.658" ry="9.557" transform="translate(8.223 7.351)"/><ellipse id="Oval-4" cx="4.329" cy="4.411" fill="url(#radial-gradient-7)" rx="4.329" ry="4.411" transform="translate(11.109 10.292)"/></g></g></g><ellipse id="Oval-5" cx="22.5" cy="4.5" class="cls-15" rx="22.5" ry="4.5" transform="rotate(69 -100.927 293.949)"/><ellipse id="Oval-6" cx="18" cy="5.5" class="cls-15" rx="18" ry="5.5" transform="rotate(116 29.271 206.294)"/><path id="Subtraction_41" fill="#fff" d="M4.234 17.773a9.232 9.232 0 01-3.068-3.423A10.323 10.323 0 010 9.557C0 4.287 3.884 0 8.658 0a8.075 8.075 0 015.406 2.091 9.764 9.764 0 013.018 5.249A8.04 8.04 0 0012.659 6C7.884 6 4 10.287 4 15.556a10.557 10.557 0 00.234 2.214z" opacity=".146" transform="translate(237.351 269.094)"/><circle id="Oval-Copy-7" cx="12" cy="12" r="12" transform="rotate(9 -1584.638 1456.83)" style="mix-blend-mode:lighten;isolation:isolate" fill="url(#radial-gradient-10)"/><path id="Path-120" fill="none" fill-rule="evenodd" stroke="#f44881" stroke-linejoin="round" stroke-miterlimit="10" stroke-width="2" d="M209.485 334.931l8.99-7.3-10.69-35 16.142-31.666"/><g id="Group-14-Copy" transform="rotate(9 -1781.988 1441.698)"><circle id="Oval-7" cx="3.537" cy="3.537" r="3.537" class="cls-19" transform="translate(.386 -8.1)"/><path id="Combined-Shape-5" d="M3.754-.938a3.363 3.363 0 002.694-1.346 3.356 3.356 0 01-2.02.673A3.368 3.368 0 011.06-4.979 3.353 3.353 0 011.733-7 3.362 3.362 0 00.386-4.306 3.368 3.368 0 003.754-.938z" class="cls-20" transform="translate(0 -.09)"/></g><g id="Group-29" transform="rotate(-115.98 197.922 59.167)"><circle id="Oval-8" cx="7.5" cy="7.5" r="7.5" fill="url(#linear-gradient-6)" opacity=".055" transform="rotate(125.03 9.882 .477)"/><circle id="Oval-9" cx="5.5" cy="5.5" r="5.5" fill="url(#linear-gradient-6)" opacity=".111" transform="rotate(125.03 8.362 -.002)"/><circle id="Oval-10" cx="3.5" cy="3.5" r="3.5" fill="url(#linear-gradient-6)" transform="rotate(125.03 6.842 -.48)"/><path id="Combined-Shape-6" d="M5.71-3.2a3.328 3.328 0 002.667-1.33 3.319 3.319 0 01-2 .667A3.333 3.333 0 013.044-7.2a3.319 3.319 0 01.667-2 3.328 3.328 0 00-1.334 2.67A3.333 3.333 0 005.71-3.2z" class="cls-20" transform="rotate(125.03 5.375 -6.196)"/></g><g id="Group-31" transform="rotate(9 -1977.781 1530.166)"><circle id="Oval-11" cx="2.811" cy="2.811" r="2.811" class="cls-19" transform="translate(0 -4.8)"/><path id="Combined-Shape-7" d="M2.6.686A2.6 2.6 0 004.686-.357a2.587 2.587 0 01-1.563.522 2.6 2.6 0 01-2.6-2.6A2.591 2.591 0 011.042-4 2.6 2.6 0 000-1.917 2.6 2.6 0 002.6.686z" class="cls-20" transform="translate(0 .137)"/></g></g></svg>