<svg xmlns="http://www.w3.org/2000/svg" xmlns:xlink="http://www.w3.org/1999/xlink" width="120" height="120.001"><defs><linearGradient id="linear-gradient" x1="-.279" x2="1" y1="-.265" y2=".753" gradientUnits="objectBoundingBox"><stop offset="0" stop-color="#5b79a2"/><stop offset="1" stop-color="#2e4469"/></linearGradient><linearGradient id="linear-gradient-2" x1=".045" x2="-.824" y1="0" y2="0" xlink:href="#linear-gradient"/><linearGradient id="linear-gradient-6" x1="-1.429" x2="1.386" y1=".39" y2=".31" xlink:href="#linear-gradient"/><linearGradient id="linear-gradient-17" x1="-.281" x2=".733" y1="-3.614" y2="1" xlink:href="#linear-gradient"/><linearGradient id="linear-gradient-18" x1="0" x2="-10.369" y1=".5" y2="-.486" xlink:href="#linear-gradient"/><linearGradient id="linear-gradient-21" x1=".5" x2=".5" y1="1" gradientUnits="objectBoundingBox"><stop offset="0" stop-color="#a987f7"/><stop offset="1" stop-color="#b372bd"/></linearGradient><linearGradient id="linear-gradient-24" x1=".909" x2=".149" y1=".795" y2=".148" gradientUnits="objectBoundingBox"><stop offset="0" stop-color="#764fd0"/><stop offset="1" stop-color="#c67fdd"/></linearGradient><radialGradient id="radial-gradient" cx=".5" cy=".5" r=".621" gradientTransform="matrix(.75 -.662 .14 .159 .055 .751)" gradientUnits="objectBoundingBox"><stop offset="0" stop-opacity=".608"/><stop offset=".382" stop-opacity=".392"/><stop offset="1" stop-opacity="0"/></radialGradient><radialGradient id="radial-gradient-2" cx=".5" cy=".5" r=".5" gradientUnits="objectBoundingBox"><stop offset="0" stop-color="#bc5aec"/><stop offset="1" stop-color="#c95cff" stop-opacity="0"/></radialGradient><clipPath id="clip-path"><circle id="Mask_Copy_2" cx="60" cy="60" r="60" class="cls-1" data-name="Mask Copy 2"/></clipPath><clipPath id="clip-path-2"><circle id="Mask_Copy_2-2" cx="60" cy="60" r="60" fill="none" stroke="#707070" stroke-miterlimit="10" stroke-width="2" data-name="Mask Copy 2"/></clipPath><style>.cls-1{fill:rgba(0,0,0,.15)}.cls-6{fill:url(#linear-gradient)}.cls-7{fill:url(#linear-gradient-2)}.cls-11{fill:url(#linear-gradient-18)}.cls-14{fill:url(#linear-gradient-21)}.cls-15{fill:rgba(255,255,255,.2)}</style></defs><g id="tooling-visual-studio-php" transform="translate(-1366 -394)"><g id="Group_193" data-name="Group 193"><g id="Color_Crown_Shadow" data-name="Color Crown + Shadow" transform="translate(3822 784)"><circle id="Shadow" cx="58" cy="58" r="58" class="cls-1" transform="translate(-2454 -388)"/></g><g id="Group_37" data-name="Group 37" transform="translate(1366 394)"><g id="tooling-visual-studio-illustration" clip-path="url(#clip-path)"><rect id="Rectangle_2" width="140" height="131" fill="#2e4469" data-name="Rectangle 2" rx="4" transform="translate(24 18)"/><path id="Path_20" fill="none" stroke="#9368b6" stroke-miterlimit="10" stroke-width=".5" d="M87.479 38.149h39.152v5.262H94.174v4.9h31.774v6.229H86.9v4.509h35.317v6.172H92.056v7.614h30.825v6.954H88.756v6.66h30.561v7.852H90.885v7.782h18.794v5.892H88.138" data-name="Path 20"/><rect id="Rectangle_2-2" width="17" height="131" class="cls-6" data-name="Rectangle 2" rx="4" transform="translate(24 18)"/><g id="Group_47" data-name="Group 47" transform="translate(28 32)"><path id="Rectangle_2_Copy_4" d="M0 0h9v9H0z" class="cls-7" data-name="Rectangle 2 Copy 4"/><path id="Rectangle_2_Copy_8" d="M0 0h9v9H0z" class="cls-7" data-name="Rectangle 2 Copy 8" transform="translate(0 13)"/><path id="Rectangle_2_Copy_9" d="M0 0h9v9H0z" class="cls-7" data-name="Rectangle 2 Copy 9" transform="translate(0 26)"/><path id="Rectangle_2_Copy_10" d="M0 0h9v9H0z" class="cls-7" data-name="Rectangle 2 Copy 10" transform="translate(0 39)"/></g><rect id="Rectangle_2_Copy" width="41" height="131" fill="url(#linear-gradient-6)" data-name="Rectangle 2 Copy" rx="4" transform="translate(41 18)"/><path id="Rectangle_2_Copy_2" d="M0 0h41v6H0z" class="cls-6" data-name="Rectangle 2 Copy 2" transform="translate(41 32)"/><g id="Group_46" data-name="Group 46" transform="translate(45 41)"><path id="Rectangle_2_Copy_4-2" d="M0 0h34v4H0z" class="cls-7" data-name="Rectangle 2 Copy 4"/><path id="Rectangle_2_Copy_6" d="M0 0h34v4H0z" class="cls-7" data-name="Rectangle 2 Copy 6" transform="translate(0 14)"/><path id="Rectangle_2_Copy_5" d="M0 0h29v4H0z" class="cls-7" data-name="Rectangle 2 Copy 5" transform="translate(0 7)"/><path id="Rectangle_2_Copy_7" d="M0 0h25v4H0z" class="cls-7" data-name="Rectangle 2 Copy 7" transform="translate(0 21)"/></g><g id="Group_46_Copy" data-name="Group 46 Copy" transform="translate(45 78)"><path id="Rectangle_2_Copy_4-3" d="M0 0h26v4H0z" class="cls-7" data-name="Rectangle 2 Copy 4"/><path id="Rectangle_2_Copy_6-2" d="M0 0h30v4H0z" class="cls-7" data-name="Rectangle 2 Copy 6" transform="translate(0 14)"/><path id="Rectangle_2_Copy_5-2" d="M0 0h30v4H0z" class="cls-7" data-name="Rectangle 2 Copy 5" transform="translate(0 7)"/><path id="Rectangle_2_Copy_7-2" d="M0 0h26v4H0z" class="cls-7" data-name="Rectangle 2 Copy 7" transform="translate(0 21)"/></g><path id="Rectangle_2_Copy_3" d="M0 0h41v6H0z" class="cls-6" data-name="Rectangle 2 Copy 3" transform="translate(41 69)"/><path id="Path_16_Copy_3" fill="url(#radial-gradient)" d="M46.7 0l3.8 4.374L0 12.828l2.731-5.656z" data-name="Path 16 Copy 3" opacity=".266" transform="rotate(-49 118.13 -14.25)"/><path id="Rectangle_2-3" fill="url(#linear-gradient-17)" d="M4 0h136v9H0V4a4 4 0 014-4z" data-name="Rectangle 2" transform="translate(24 18)"/><g id="Group_45" data-name="Group 45" transform="translate(29 21)"><circle id="Oval_8" cx="2" cy="2" r="2" class="cls-11" data-name="Oval 8"/><circle id="Oval_8_Copy" cx="2" cy="2" r="2" class="cls-11" data-name="Oval 8 Copy" transform="translate(6)"/><circle id="Oval_8_Copy_2" cx="2" cy="2" r="2" class="cls-11" data-name="Oval 8 Copy 2" transform="translate(12)"/></g></g><g id="Mask_Group_31" clip-path="url(#clip-path-2)" data-name="Mask Group 31"><g id="Group_34" data-name="Group 34" transform="rotate(23 -40.398 254.793)"><path id="Path_15" fill="none" stroke="#8b60ed" stroke-miterlimit="10" stroke-width="2" d="M-64.419 94.067l6.041-42.319 43.211 11.548 10.429-56.8" data-name="Path 15"/><g id="Group_42" data-name="Group 42" transform="translate(-10 48)"><circle id="Oval" cx="5.5" cy="5.5" r="5.5" class="cls-14" transform="translate(-11 11)"/><circle id="Oval_Copy_4" cx="4.5" cy="4.5" r="4.5" class="cls-14" data-name="Oval Copy 4" transform="translate(-53)"/><path id="Combined_Shape" d="M-2.216 10A5.513 5.513 0 000 5.556 5.562 5.562 0 00-5.556 0 5.513 5.513 0 00-10 2.222a5.509 5.509 0 013.333-1.11 5.561 5.561 0 015.555 5.554 5.51 5.51 0 01-1.105 3.328z" class="cls-15" data-name="Combined Shape" transform="translate(0 11)"/><path id="Combined_Shape_Copy_4" d="M-1.772 8A4.411 4.411 0 000 4.444 4.449 4.449 0 00-4.444 0 4.411 4.411 0 00-8 1.778 4.405 4.405 0 01-5.333.889 4.449 4.449 0 01-.889 5.333a4.406 4.406 0 01-.884 2.661z" class="cls-15" data-name="Combined Shape Copy 4" transform="translate(-44)"/></g><g id="Group_39" data-name="Group 39" transform="translate(-.391 .079)"><circle id="Oval-2" cx="5.5" cy="5.5" r="5.5" fill="url(#radial-gradient-2)" data-name="Oval" transform="translate(-10.5 -.5)"/><circle id="Oval-3" cx="3" cy="3" r="3" class="cls-14" data-name="Oval" transform="translate(-8 2)"/></g></g></g></g><g id="Color_Crown" data-name="Color Crown" transform="translate(1366 394)"><path id="Ring" fill="url(#linear-gradient-24)" d="M780 826a59.72 59.72 0 01-33.547-10.247 60.176 60.176 0 01-21.739-26.4 59.921 59.921 0 015.532-56.9 60.176 60.176 0 0126.4-21.738 59.92 59.92 0 0156.9 5.532 60.174 60.174 0 0121.738 26.4 59.923 59.923 0 01-5.532 56.9 60.174 60.174 0 01-26.4 21.739A59.623 59.623 0 01780 826zm0-118a57.729 57.729 0 00-32.429 9.905 58.167 58.167 0 00-21.014 25.518 57.924 57.924 0 005.348 55 58.169 58.169 0 0025.518 21.014 57.923 57.923 0 0055-5.348 58.17 58.17 0 0021.014-25.518 57.924 57.924 0 00-5.348-55 58.171 58.171 0 00-25.518-21.013A57.638 57.638 0 00780 708z" transform="translate(-720 -706)"/></g></g></g></svg>